<svg aria-hidden="true" style="position: absolute; width: 0; height: 0; overflow: hidden;" version="1.1" xmlns="http://www.w3.org/2000/svg" xmlns:xlink="http://www.w3.org/1999/xlink">
    <defs>
        <symbol id="logout" viewBox="0 0 24 24" stroke-width="2" stroke="currentColor" fill="none" stroke-linecap="round" stroke-linejoin="round">
            <path stroke="none" d="M0 0h24v24H0z"/>
            <path d="M14 8v-2a2 2 0 0 0 -2 -2h-7a2 2 0 0 0 -2 2v12a2 2 0 0 0 2 2h7a2 2 0 0 0 2 -2v-2" />
            <path d="M7 12h14l-3 -3m0 6l3 -3" />
        </symbol>
        <symbol id="login" width="24" height="24" viewBox="0 0 24 24" stroke-width="2" stroke="currentColor" fill="none" stroke-linecap="round" stroke-linejoin="round">
            <path stroke="none" d="M0 0h24v24H0z"/>
            <path d="M14 8v-2a2 2 0 0 0 -2 -2h-7a2 2 0 0 0 -2 2v12a2 2 0 0 0 2 2h7a2 2 0 0 0 2 -2v-2" />
            <path d="M20 12h-13l3 -3m0 6l-3 -3" />
        </symbol>
        <symbol id="user" viewBox="0 0 24 24"  fill="none"  stroke="currentColor"  stroke-width="2"  stroke-linecap="round"  stroke-linejoin="round">
            <path d="M20 21v-2a4 4 0 0 0-4-4H8a4 4 0 0 0-4 4v2" />
            <circle cx="12" cy="7" r="4" />
        </symbol>
        <symbol id="eye"  viewBox="0 0 24 24"  fill="none"  stroke="currentColor"  stroke-width="2"  stroke-linecap="round"  stroke-linejoin="round">
            <path d="M1 12s4-8 11-8 11 8 11 8-4 8-11 8-11-8-11-8z" />
            <circle cx="12" cy="12" r="3" />
        </symbol>
        <symbol id="eye-off" fill="none" viewBox="0 0 24 24" stroke="currentColor">
            <path stroke-linecap="round" stroke-linejoin="round" stroke-width="2" d="M13.875 18.825A10.05 10.05 0 0112 19c-4.478 0-8.268-2.943-9.543-7a9.97 9.97 0 011.563-3.029m5.858.908a3 3 0 114.243 4.243M9.878 9.878l4.242 4.242M9.88 9.88l-3.29-3.29m7.532 7.532l3.29 3.29M3 3l3.59 3.59m0 0A9.953 9.953 0 0112 5c4.478 0 8.268 2.943 9.543 7a10.025 10.025 0 01-4.132 5.411m0 0L21 21"/>
        </symbol>
        <symbol id="trashbin" viewBox="0 0 448 512" >
            <path d="M135.2 17.7C140.6 6.8 151.7 0 163.8 0H284.2c12.1 0 23.2 6.8 28.6 17.7L320 32h96c17.7 0 32 14.3 32 32s-14.3 32-32 32H32C14.3 96 0 81.7 0 64S14.3 32 32 32h96l7.2-14.3zM32 128H416V448c0 35.3-28.7 64-64 64H96c-35.3 0-64-28.7-64-64V128zm96 64c-8.8 0-16 7.2-16 16V432c0 8.8 7.2 16 16 16s16-7.2 16-16V208c0-8.8-7.2-16-16-16zm96 0c-8.8 0-16 7.2-16 16V432c0 8.8 7.2 16 16 16s16-7.2 16-16V208c0-8.8-7.2-16-16-16zm96 0c-8.8 0-16 7.2-16 16V432c0 8.8 7.2 16 16 16s16-7.2 16-16V208c0-8.8-7.2-16-16-16z"></path>
        </symbol>
        <symbol id="article"  viewBox="0 0 512 512">
            <path d="M168 80c-13.3 0-24 10.7-24 24V408c0 8.4-1.4 16.5-4.1 24H440c13.3 0 24-10.7 24-24V104c0-13.3-10.7-24-24-24H168zM72 480c-39.8 0-72-32.2-72-72V112C0 98.7 10.7 88 24 88s24 10.7 24 24V408c0 13.3 10.7 24 24 24s24-10.7 24-24V104c0-39.8 32.2-72 72-72H440c39.8 0 72 32.2 72 72V408c0 39.8-32.2 72-72 72H72zM176 136c0-13.3 10.7-24 24-24h96c13.3 0 24 10.7 24 24v80c0 13.3-10.7 24-24 24H200c-13.3 0-24-10.7-24-24V136zm200-24h32c13.3 0 24 10.7 24 24s-10.7 24-24 24H376c-13.3 0-24-10.7-24-24s10.7-24 24-24zm0 80h32c13.3 0 24 10.7 24 24s-10.7 24-24 24H376c-13.3 0-24-10.7-24-24s10.7-24 24-24zM200 272H408c13.3 0 24 10.7 24 24s-10.7 24-24 24H200c-13.3 0-24-10.7-24-24s10.7-24 24-24zm0 80H408c13.3 0 24 10.7 24 24s-10.7 24-24 24H200c-13.3 0-24-10.7-24-24s10.7-24 24-24z"></path>
        </symbol>
        <symbol id="filter" viewBox="0 0 512 512">
            <path d="M3.9 54.9C10.5 40.9 24.5 32 40 32H472c15.5 0 29.5 8.9 36.1 22.9s4.6 30.5-5.2 42.5L320 320.9V448c0 12.1-6.8 23.2-17.7 28.6s-23.8 4.3-33.5-3l-64-48c-8.1-6-12.8-15.5-12.8-25.6V320.9L9 97.3C-.7 85.4-2.8 68.8 3.9 54.9z"></path>
        </symbol>
        <symbol id="movie"  viewBox="0 0 512 512">
            <path d="M0 96C0 60.7 28.7 32 64 32H448c35.3 0 64 28.7 64 64V416c0 35.3-28.7 64-64 64H64c-35.3 0-64-28.7-64-64V96zM48 368v32c0 8.8 7.2 16 16 16H96c8.8 0 16-7.2 16-16V368c0-8.8-7.2-16-16-16H64c-8.8 0-16 7.2-16 16zm368-16c-8.8 0-16 7.2-16 16v32c0 8.8 7.2 16 16 16h32c8.8 0 16-7.2 16-16V368c0-8.8-7.2-16-16-16H416zM48 240v32c0 8.8 7.2 16 16 16H96c8.8 0 16-7.2 16-16V240c0-8.8-7.2-16-16-16H64c-8.8 0-16 7.2-16 16zm368-16c-8.8 0-16 7.2-16 16v32c0 8.8 7.2 16 16 16h32c8.8 0 16-7.2 16-16V240c0-8.8-7.2-16-16-16H416zM48 112v32c0 8.8 7.2 16 16 16H96c8.8 0 16-7.2 16-16V112c0-8.8-7.2-16-16-16H64c-8.8 0-16 7.2-16 16zM416 96c-8.8 0-16 7.2-16 16v32c0 8.8 7.2 16 16 16h32c8.8 0 16-7.2 16-16V112c0-8.8-7.2-16-16-16H416zM160 128v64c0 17.7 14.3 32 32 32H320c17.7 0 32-14.3 32-32V128c0-17.7-14.3-32-32-32H192c-17.7 0-32 14.3-32 32zm32 160c-17.7 0-32 14.3-32 32v64c0 17.7 14.3 32 32 32H320c17.7 0 32-14.3 32-32V320c0-17.7-14.3-32-32-32H192z"></path>
        </symbol>
        <symbol id="feather" viewBox="0 0 512 512">
            <path d="M278.5 215.6L23 471c-9.4 9.4-9.4 24.6 0 33.9s24.6 9.4 33.9 0l57-57h68c49.7 0 97.9-14.4 139-41c11.1-7.2 5.5-23-7.8-23c-5.1 0-9.2-4.1-9.2-9.2c0-4.1 2.7-7.6 6.5-8.8l81-24.3c2.5-.8 4.8-2.1 6.7-4l22.4-22.4c10.1-10.1 2.9-27.3-11.3-27.3l-32.2 0c-5.1 0-9.2-4.1-9.2-9.2c0-4.1 2.7-7.6 6.5-8.8l112-33.6c4-1.2 7.4-3.9 9.3-7.7C506.4 207.6 512 184.1 512 160c0-41-16.3-80.3-45.3-109.3l-5.5-5.5C432.3 16.3 393 0 352 0s-80.3 16.3-109.3 45.3L139 149C91 197 64 262.1 64 330v55.3L253.6 195.8c6.2-6.2 16.4-6.2 22.6 0c5.4 5.4 6.1 13.6 2.2 19.8z"></path>
        </symbol>
        <symbol id="pen"  fill="none" viewBox="0 0 24 24" stroke="currentColor">
            <path stroke-linecap="round" stroke-linejoin="round" stroke-width="2" d="M15.232 5.232l3.536 3.536m-2.036-5.036a2.5 2.5 0 113.536 3.536L6.5 21.036H3v-3.572L16.732 3.732z"/>
        </symbol>
        <symbol id="archive"  fill="none" viewBox="0 0 24 24" stroke="currentColor">
            <path stroke-linecap="round" stroke-linejoin="round" stroke-width="2" d="M5 8h14M5 8a2 2 0 110-4h14a2 2 0 110 4M5 8v10a2 2 0 002 2h10a2 2 0 002-2V8m-9 4h4"/>
        </symbol>
        <symbol id="comments"  viewBox="0 0 640 512">
            <path d="M208 352c114.9 0 208-78.8 208-176S322.9 0 208 0S0 78.8 0 176c0 38.6 14.7 74.3 39.6 103.4c-3.5 9.4-8.7 17.7-14.2 24.7c-4.8 6.2-9.7 11-13.3 14.3c-1.8 1.6-3.3 2.9-4.3 3.7c-.5 .4-.9 .7-1.1 .8l-.2 .2 0 0 0 0C1 327.2-1.4 334.4 .8 340.9S9.1 352 16 352c21.8 0 43.8-5.6 62.1-12.5c9.2-3.5 17.8-7.4 25.3-11.4C134.1 343.3 169.8 352 208 352zM448 176c0 112.3-99.1 196.9-216.5 207C255.8 457.4 336.4 512 432 512c38.2 0 73.9-8.7 104.7-23.9c7.5 4 16 7.9 25.2 11.4c18.3 6.9 40.3 12.5 62.1 12.5c6.9 0 13.1-4.5 15.2-11.1c2.1-6.6-.2-13.8-5.8-17.9l0 0 0 0-.2-.2c-.2-.2-.6-.4-1.1-.8c-1-.8-2.5-2-4.3-3.7c-3.6-3.3-8.5-8.1-13.3-14.3c-5.5-7-10.7-15.4-14.2-24.7c24.9-29 39.6-64.7 39.6-103.4c0-92.8-84.9-168.9-192.6-175.5c.4 5.1 .6 10.3 .6 15.5z"></path>
        </symbol>
        <symbol id="edit" width="24"  height="24"  viewBox="0 0 24 24"  xmlns="http://www.w3.org/2000/svg"  fill="none"  stroke="currentColor"  stroke-width="2"  stroke-linecap="round"  stroke-linejoin="round">
            <path d="M11 4H4a2 2 0 0 0-2 2v14a2 2 0 0 0 2 2h14a2 2 0 0 0 2-2v-7" />
            <path d="M18.5 2.5a2.121 2.121 0 0 1 3 3L12 15l-4 1 1-4 9.5-9.5z" />
        </symbol>
        <symbol id="menu" viewBox="0 0 32 32" fill="none" stroke="currentColor">
            <path stroke-linejoin="round" stroke-linecap="round" stroke-miterlimit="4" stroke-width="2.6667" d="M5.333 8h21.333M5.333 16h21.333M5.333 24h21.333"></path>
        </symbol>
        <svg id="bell" fill="none" viewBox="0 0 24 24" stroke="currentColor">
            <path
                stroke-linecap="round"
                stroke-linejoin="round"
                stroke-width="2"
                d="M15 17h5l-1.405-1.405A2.032 2.032 0 0118 14.158V11a6.002 6.002 0 00-4-5.659V5a2 2 0 10-4 0v.341C7.67 6.165 6 8.388 6 11v3.159c0 .538-.214 1.055-.595 1.436L4 17h5m6 0v1a3 3 0 11-6 0v-1m6 0H9"
            />
        </svg>
        <symbol id="moon" viewBox="0 0 32 32">
            <path d="M28.853 17.333c-0.229-0.19-0.526-0.306-0.849-0.306-0.2 0-0.389 0.044-0.559 0.122l0.008-0.003c-1.311 0.615-2.847 0.973-4.466 0.973-0.010 0-0.019 0-0.029-0h0.001c-5.972-0.007-10.816-4.832-10.853-10.796l-0-0.004c0.007-0.95 0.128-1.868 0.35-2.746l-0.017 0.079c0.016-0.077 0.025-0.166 0.025-0.257 0-0.736-0.597-1.333-1.333-1.333-0.167 0-0.327 0.031-0.474 0.087l0.009-0.003c-4.741 2.17-7.975 6.873-7.975 12.331 0 7.467 6.053 13.52 13.52 13.52 6.311 0 11.612-4.324 13.102-10.171l0.020-0.094c0.028-0.102 0.044-0.219 0.044-0.34 0-0.431-0.204-0.814-0.521-1.057l-0.003-0.002zM16.187 26.253c-5.961-0.043-10.777-4.886-10.777-10.853 0-3.4 1.563-6.435 4.010-8.425l0.020-0.016v0.36c0.008 7.464 6.056 13.512 13.519 13.52h0.001c0.014 0 0.031 0 0.048 0 0.975 0 1.925-0.107 2.839-0.31l-0.087 0.016c-1.852 3.452-5.437 5.76-9.56 5.76-0.005 0-0.009 0-0.014 0h0.001z"></path>
        </symbol>
        <symbol id="sun" viewBox="0 0 32 32">
            <path d="M7.52 22.667l-0.947 0.947c-0.24 0.241-0.388 0.573-0.388 0.94s0.148 0.699 0.388 0.94l-0-0c0.241 0.24 0.573 0.388 0.94 0.388s0.699-0.148 0.94-0.388l0.947-0.947c0.199-0.232 0.321-0.535 0.321-0.867 0-0.736-0.597-1.333-1.333-1.333-0.332 0-0.636 0.121-0.869 0.322l0.002-0.001zM6.667 16c0-0.736-0.597-1.333-1.333-1.333v0h-1.333c-0.736 0-1.333 0.597-1.333 1.333s0.597 1.333 1.333 1.333v0h1.333c0.736 0 1.333-0.597 1.333-1.333v0zM16 6.667c0.736 0 1.333-0.597 1.333-1.333v0-1.333c0-0.736-0.597-1.333-1.333-1.333s-1.333 0.597-1.333 1.333v0 1.333c0 0.736 0.597 1.333 1.333 1.333v0zM7.52 9.4c0.24 0.238 0.569 0.385 0.933 0.387h0c0.002 0 0.005 0 0.008 0 0.366 0 0.698-0.148 0.939-0.387l-0 0c0.24-0.241 0.388-0.573 0.388-0.94s-0.148-0.699-0.388-0.94l-0.947-0.947c-0.232-0.199-0.535-0.321-0.867-0.321-0.736 0-1.333 0.597-1.333 1.333 0 0.332 0.121 0.636 0.322 0.869l-0.001-0.002zM23.52 9.787c0.364-0.002 0.694-0.149 0.933-0.387l0.947-0.947c0.286-0.246 0.466-0.608 0.466-1.013 0-0.736-0.597-1.333-1.333-1.333-0.404 0-0.767 0.18-1.011 0.464l-0.001 0.002-0.853 0.947c-0.24 0.241-0.388 0.573-0.388 0.94s0.148 0.699 0.388 0.94l-0-0c0.227 0.226 0.535 0.371 0.877 0.387l0.003 0zM28 14.667h-1.333c-0.736 0-1.333 0.597-1.333 1.333s0.597 1.333 1.333 1.333v0h1.333c0.736 0 1.333-0.597 1.333-1.333s-0.597-1.333-1.333-1.333v0zM16 25.333c-0.736 0-1.333 0.597-1.333 1.333v0 1.333c0 0.736 0.597 1.333 1.333 1.333s1.333-0.597 1.333-1.333v0-1.333c0-0.736-0.597-1.333-1.333-1.333v0zM24.48 22.667c-0.187-0.106-0.41-0.168-0.648-0.168-0.736 0-1.333 0.597-1.333 1.333 0 0.238 0.062 0.461 0.172 0.655l-0.003-0.007 0.947 0.947c0.241 0.24 0.573 0.388 0.94 0.388s0.699-0.148 0.94-0.388l-0 0c0.24-0.241 0.388-0.573 0.388-0.94s-0.148-0.699-0.388-0.94l0 0zM16 8.667c-4.050 0-7.333 3.283-7.333 7.333s3.283 7.333 7.333 7.333c4.050 0 7.333-3.283 7.333-7.333v0c-0.008-4.047-3.286-7.326-7.333-7.333h-0.001zM16 20.667c-2.577 0-4.667-2.089-4.667-4.667s2.089-4.667 4.667-4.667c2.577 0 4.667 2.089 4.667 4.667v0c0 2.577-2.089 4.667-4.667 4.667v0z"></path>
        </symbol>
        <symbol id="thumb-up" width="24" height="24" viewBox="0 0 24 24" stroke-width="2" stroke="currentColor" fill="none" stroke-linecap="round" stroke-linejoin="round">
            <path stroke="none" d="M0 0h24v24H0z"/>
            <path d="M7 11v 8a1 1 0 0 1 -1 1h-2a1 1 0 0 1 -1 -1v-7a1 1 0 0 1 1 -1h3a4 4 0 0 0 4 -4v-1a2 2 0 0 1 4 0v5h3a2 2 0 0 1 2 2l-1 5a2 3 0 0 1 -2 2h-7a3 3 0 0 1 -3 -3" />
        </symbol>
        <symbol id="thumb-down" width="24" height="24" viewBox="0 0 24 24" stroke-width="2" stroke="currentColor" fill="none" stroke-linecap="round" stroke-linejoin="round">
            <path stroke="none" d="M0 0h24v24H0z"/>
            <path d="M7 13v-8a1 1 0 0 0 -1 -1h-2a1 1 0 0 0 -1 1v7a1 1 0 0 0 1 1h3a4 4 0 0 1 4 4v 1a2 2 0 0 0 4 0v-5h3a2 2 0 0 0 2 -2l-1 -5a2 3 0 0 0 -2 -2h-7a3 3 0 0 0 -3 3" />
        </symbol>
        <symbol id="close" fill="none" viewBox="0 0 24 24" stroke-width="1.5" stroke="currentColor" class="size-6">
            <path stroke-linecap="round" stroke-linejoin="round" d="M6 18 18 6M6 6l12 12" />
        </symbol>
        <symbol id="flag" viewBox="0 0 24 24" >
            <g>
                <path d="M3,24H1V1.4l0.5-0.3C4.8-1,7.9,0.2,10.9,1.4c3.4,1.4,6.5,2.6,10.5-0.3L23,0v14.5l-0.4,0.3c-4.9,3.6-8.9,2-12.5,0.5
			c-2.6-1-4.8-1.9-7.1-0.8V24z M5.3,12c1.9,0,3.8,0.7,5.6,1.5c3.2,1.3,6.3,2.5,10.1,0V3.8C16.8,6,13.3,4.6,10.1,3.3
			C7.5,2.3,5.3,1.4,3,2.5v9.8C3.8,12.1,4.5,12,5.3,12z"/>
            </g>
        </symbol>
        <symbol id="flag-filled" viewBox="0 0 24 24" >
            <g id="Flag-Filled">
                <path d="M23,1.1v13.6c-8.1,6.2-13.8-2.5-20-0.9V24H1v-9.2V12V1.1C2.2,0.3,3.4,0,4.6,0C10.2,0,15.6,6.7,23,1.1L23,1.1z"/>
            </g>
        </symbol>
        <symbol
        id="search"
               fill="none" viewBox="0 0 24 24" stroke="currentColor">
            <path stroke-linecap="round" stroke-linejoin="round" stroke-width="2" d="M21 21l-6-6m2-5a7 7 0 11-14 0 7 7 0 0114 0z"/>
        </symbol>
    </defs>
</svg>